<svg width="33" height="32" viewBox="0 0 33 32" fill="none" xmlns="http://www.w3.org/2000/svg">
<path d="M27.8253 7.66857C27.57 7.74105 27.2999 7.7773 27.0149 7.7773C26.2237 7.7773 25.5494 7.49801 24.9921 6.93945C24.4349 6.38088 24.1562 5.70506 24.1562 4.91198C24.1562 4.1189 24.4349 3.44307 24.9921 2.88451C25.5494 2.32594 26.2237 2.04666 27.0149 2.04666C27.8061 2.04666 28.4804 2.32594 29.0376 2.88451C29.5949 3.44307 29.8735 4.1189 29.8735 4.91198V7.7773C29.1969 7.7773 28.6484 7.22878 28.6484 6.55216V4.86721C28.6399 4.43655 28.4804 4.0656 28.1698 3.75434C27.8508 3.43455 27.4658 3.27465 27.0149 3.27465C26.564 3.27465 26.179 3.43455 25.86 3.75434C25.5409 4.07413 25.3814 4.46001 25.3814 4.91198C25.3814 5.36395 25.5409 5.74983 25.86 6.06962C26.179 6.38941 26.564 6.5493 27.0149 6.5493C27.3127 6.5493 27.5828 6.47895 27.8253 6.33824V7.66857Z" fill="white"/>
<path d="M31.9154 2.04666V6.55216C31.9154 7.22878 31.3669 7.7773 30.6903 7.7773V2.04666H31.9154ZM32.0877 0.818663C32.0877 1.04465 32.0069 1.23865 31.8452 1.40068C31.6879 1.55844 31.4964 1.63733 31.271 1.63733C31.0455 1.63733 30.852 1.55844 30.6903 1.40068C30.5329 1.23865 30.4542 1.04465 30.4542 0.818663C30.4542 0.592678 30.5329 0.400804 30.6903 0.24304C30.852 0.0810135 31.0455 0 31.271 0C31.4964 0 31.6879 0.0810135 31.8452 0.24304C32.0069 0.400804 32.0877 0.592678 32.0877 0.818663Z" fill="white"/>
<path d="M18.0512 31.4665C16.7955 31.8221 15.4665 31.9998 14.0642 31.9998C10.1715 31.9998 6.85422 30.6298 4.11253 27.8898C1.37084 25.1498 0 21.8346 0 17.9442C0 14.0538 1.37084 10.7386 4.11253 7.99854C6.85422 5.25852 10.1715 3.88851 14.0642 3.88851C17.957 3.88851 21.2742 5.25852 24.0159 7.99854C26.7576 10.7386 28.1285 14.0538 28.1285 17.9442V31.9998C24.7995 31.9998 22.1009 29.3012 22.1009 25.9723V17.7246C22.0591 15.612 21.2742 13.7923 19.7464 12.2654C18.1768 10.6967 16.2827 9.91237 14.0642 9.91237C11.8458 9.91237 9.9517 10.6967 8.38203 12.2654C6.81236 13.8342 6.02753 15.7271 6.02753 17.9442C6.02753 20.1613 6.81236 22.0542 8.38203 23.6229C9.9517 25.1916 11.8458 25.976 14.0642 25.976C15.5293 25.976 16.8582 25.6309 18.0512 24.9406V31.4665Z" fill="white"/>
</svg>
