<svg width="96" height="96" viewBox="0 0 96 96" fill="none" xmlns="http://www.w3.org/2000/svg">
<path d="M83.2592 22.9204C82.4964 23.1371 81.689 23.2454 80.8371 23.2454C78.4722 23.2454 76.457 22.4107 74.7914 20.7412C73.1258 19.0717 72.293 17.0517 72.293 14.6813C72.293 12.3109 73.1258 10.2909 74.7914 8.62144C76.457 6.95195 78.4722 6.11721 80.8371 6.11721C83.202 6.11721 85.2173 6.95195 86.8829 8.62144C88.5485 10.2909 89.3813 12.3109 89.3813 14.6813V23.2454C87.3589 23.2454 85.7195 21.606 85.7195 19.5836V14.5475C85.6941 13.2603 85.2173 12.1516 84.2891 11.2213C83.3355 10.2654 82.1849 9.78754 80.8371 9.78754C79.4894 9.78754 78.3387 10.2654 77.3851 11.2213C76.4315 12.1771 75.9547 13.3304 75.9547 14.6813C75.9547 16.0322 76.4315 17.1855 77.3851 18.1413C78.3387 19.0972 79.4894 19.5751 80.8371 19.5751C81.7271 19.5751 82.5345 19.3648 83.2592 18.9442V22.9204Z" fill="#27272A"/>
<path d="M95.4842 6.11721V19.5836C95.4842 21.606 93.8448 23.2454 91.8225 23.2454V6.11721H95.4842ZM95.9992 2.44688C95.9992 3.12233 95.7576 3.70219 95.2745 4.18647C94.804 4.658 94.2319 4.89377 93.558 4.89377C92.8841 4.89377 92.3056 4.658 91.8225 4.18647C91.352 3.70219 91.1168 3.12233 91.1168 2.44688C91.1168 1.77144 91.352 1.19795 91.8225 0.726419C92.3056 0.24214 92.8841 0 93.558 0C94.2319 0 94.804 0.24214 95.2745 0.726419C95.7576 1.19795 95.9992 1.77144 95.9992 2.44688Z" fill="#27272A"/>
<path d="M54.0388 94.0505C50.2855 95.1133 46.3133 95.6447 42.1222 95.6447C30.4872 95.6447 20.5724 91.5499 12.3778 83.3603C4.18322 75.1707 0.0859375 65.2619 0.0859375 53.634C0.0859375 42.006 4.18322 32.0973 12.3778 23.9077C20.5724 15.7181 30.4872 11.6233 42.1222 11.6233C53.7573 11.6233 63.6721 15.7181 71.8666 23.9077C80.0612 32.0973 84.1585 42.006 84.1585 53.634L84.1585 95.6447C74.2174 95.6447 66.143 87.5858 66.143 77.6447L66.143 52.9776C66.0178 46.6635 63.6721 41.2246 59.1056 36.6609C54.4141 31.9722 48.7529 29.6279 42.1222 29.6279C35.4915 29.6279 29.8304 31.9722 25.1388 36.6609C20.4473 41.3496 18.1015 47.0073 18.1015 53.634C18.1015 60.2607 20.4473 65.9184 25.1388 70.6071C29.8304 75.2957 35.4915 77.6401 42.1222 77.6401C46.501 77.6401 50.4732 76.6086 54.0388 74.5455L54.0388 94.0505Z" fill="#27272A"/>
</svg>
