<svg width="117" height="32" viewBox="0 0 117 32" fill="none" xmlns="http://www.w3.org/2000/svg">
<path d="M14.5083 31.0601C13.499 31.346 12.4309 31.489 11.3039 31.489C8.17511 31.489 5.50895 30.3872 3.30537 28.1837C1.10179 25.9801 0 23.3139 0 20.1852C0 17.0564 1.10179 14.3903 3.30537 12.1867C5.50895 9.9831 8.17511 8.88131 11.3039 8.88131C14.4326 8.88131 17.0988 9.9831 19.3023 12.1867C21.5059 14.3903 22.6077 17.0564 22.6077 20.1852V31.489C19.9322 31.489 17.7632 29.3201 17.7632 26.6445V20.0085C17.7296 18.3096 17.0988 16.8462 15.8708 15.6182C14.6092 14.3566 13.0869 13.7258 11.3039 13.7258C9.52081 13.7258 7.99849 14.3566 6.7369 15.6182C5.4753 16.8798 4.84451 18.4021 4.84451 20.1852C4.84451 21.9682 5.4753 23.4905 6.7369 24.7521C7.99849 26.0137 9.52081 26.6445 11.3039 26.6445C12.4813 26.6445 13.5495 26.367 14.5083 25.8119V31.0601Z" fill="black"/>
<path d="M37.1412 13.7258C35.3582 13.7258 33.8359 14.3566 32.5743 15.6182C31.3127 16.8798 30.6819 18.4021 30.6819 20.1852V31.489H25.8374V20.1852C25.8374 17.0564 26.9392 14.3903 29.1427 12.1867C31.3463 9.9831 34.0125 8.88131 37.1412 8.88131V13.7258Z" fill="black"/>
<path d="M45.2154 13.7258V20.1852C45.2154 21.9682 45.8462 23.4905 47.1078 24.7521C48.3694 26.0137 49.8917 26.6445 51.6748 26.6445V31.489C48.546 31.489 45.8799 30.3872 43.6763 28.1837C41.4727 25.9801 40.3709 23.3139 40.3709 20.1852V2.42197H45.2154V8.88131H51.6748C51.6748 11.5569 49.5058 13.7258 46.8303 13.7258H45.2154Z" fill="black"/>
<path d="M59.7489 8.88131V26.6445C59.7489 29.3201 57.58 31.489 54.9044 31.489V8.88131H59.7489ZM60.4302 4.0368C60.4302 4.92833 60.1106 5.69369 59.4714 6.3329C58.849 6.95528 58.0921 7.26647 57.2005 7.26647C56.309 7.26647 55.5436 6.95528 54.9044 6.3329C54.2821 5.69369 53.9709 4.92833 53.9709 4.0368C53.9709 3.14528 54.2821 2.38832 54.9044 1.76594C55.5436 1.12673 56.309 0.807129 57.2005 0.807129C58.0921 0.807129 58.849 1.12673 59.4714 1.76594C60.1106 2.38832 60.4302 3.14528 60.4302 4.0368Z" fill="black"/>
<path d="M62.9786 8.88131H68.7567L74.2825 20.1852L77.352 13.9908C78.9028 10.8612 82.0936 8.88131 85.5863 8.88131L74.2825 31.489L62.9786 8.88131Z" fill="black"/>
<path d="M96.0828 31.489C92.954 31.489 90.2878 30.3872 88.0843 28.1837C85.8807 25.9801 84.7789 23.3139 84.7789 20.1852C84.7789 17.0564 85.8807 14.3903 88.0843 12.1867C90.2878 9.9831 92.954 8.88131 96.0828 8.88131C99.2115 8.88131 101.878 9.9831 104.081 12.1867C106.285 14.3903 107.387 17.0564 107.387 20.1852C107.387 23.3139 106.285 25.9801 104.081 28.1837C101.878 30.3872 99.2115 31.489 96.0828 31.489ZM96.0828 26.6445C97.8658 26.6445 99.3881 26.0137 100.65 24.7521C101.911 23.4905 102.542 21.9682 102.542 20.1852C102.542 18.4021 101.911 16.8798 100.65 15.6182C99.3881 14.3566 97.8658 13.7258 96.0828 13.7258C94.2997 13.7258 92.7774 14.3566 91.5158 15.6182C90.2542 16.8798 89.6234 18.4021 89.6234 20.1852C89.6234 21.9682 90.2542 23.4905 91.5158 24.7521C92.7774 26.0137 94.2997 26.6445 96.0828 26.6445Z" fill="black"/>
<path d="M110.816 10.5487C110.465 10.6484 110.094 10.6983 109.702 10.6983C108.615 10.6983 107.688 10.3141 106.922 9.54576C106.156 8.77741 105.773 7.84776 105.773 6.75681C105.773 5.66587 106.156 4.73622 106.922 3.96787C107.688 3.19952 108.615 2.81534 109.702 2.81534C110.789 2.81534 111.716 3.19952 112.482 3.96787C113.248 4.73622 113.631 5.66587 113.631 6.75681V10.6983C112.701 10.6983 111.947 9.94448 111.947 9.0146V6.69523C111.935 6.10284 111.716 5.59255 111.289 5.16439C110.851 4.72449 110.322 4.50454 109.702 4.50454C109.082 4.50454 108.553 4.72449 108.115 5.16439C107.676 5.60429 107.457 6.13509 107.457 6.75681C107.457 7.37854 107.676 7.90934 108.115 8.34924C108.553 8.78914 109.082 9.00909 109.702 9.00909C110.111 9.00909 110.483 8.91231 110.816 8.71875V10.5487Z" fill="black"/>
<path d="M116.437 2.81534V9.0146C116.437 9.94448 115.683 10.6983 114.753 10.6983V2.81534H116.437ZM116.674 1.12614C116.674 1.437 116.563 1.70387 116.34 1.92675C116.124 2.14376 115.861 2.25227 115.551 2.25227C115.241 2.25227 114.975 2.14376 114.753 1.92675C114.537 1.70387 114.429 1.437 114.429 1.12614C114.429 0.815275 114.537 0.551337 114.753 0.334322C114.975 0.111441 115.241 0 115.551 0C115.861 0 116.124 0.111441 116.34 0.334322C116.563 0.551337 116.674 0.815275 116.674 1.12614Z" fill="black"/>
</svg>
