<svg width="50" height="50" viewBox="0 0 50 50" fill="none" xmlns="http://www.w3.org/2000/svg">
<path d="M32.0871 49.0513C29.8549 49.6838 27.4926 50 25 50C18.0804 50 12.1838 47.5632 7.31027 42.6897C2.43676 37.8162 0 31.9196 0 25C0 18.0804 2.43676 12.1838 7.31027 7.31027C12.1838 2.43676 18.0804 0 25 0C31.9196 0 37.8162 2.43676 42.6897 7.31027C47.5632 12.1838 50 18.0804 50 25V50C44.0827 50 39.2857 45.2031 39.2857 39.2857V24.6094C39.2113 20.8519 37.8162 17.6153 35.1004 14.8996C32.3103 12.1094 28.9435 10.7143 25 10.7143C21.0565 10.7143 17.6897 12.1094 14.8996 14.8996C12.1094 17.6897 10.7143 21.0565 10.7143 25C10.7143 28.9435 12.1094 32.3103 14.8996 35.1004C17.6897 37.8906 21.0565 39.2857 25 39.2857C27.6042 39.2857 29.9665 38.6719 32.0871 37.4442V49.0513Z" fill="#6D28D9"/>
</svg>
