<svg width="157" height="43" viewBox="0 0 157 43" fill="none" xmlns="http://www.w3.org/2000/svg">
<path d="M19.4275 41.5918C18.076 41.9748 16.6457 42.1662 15.1365 42.1662C10.947 42.1662 7.37681 40.6909 4.42609 37.7401C1.47536 34.7894 0 31.2193 0 27.0297C0 22.8401 1.47536 19.2699 4.42609 16.3192C7.37681 13.3685 10.947 11.8931 15.1365 11.8931C19.3261 11.8931 22.8963 13.3685 25.847 16.3192C28.7977 19.2699 30.2731 22.8401 30.2731 27.0297V42.1662V42.1662C26.6904 42.1662 23.786 39.2619 23.786 35.6791V26.7932C23.741 24.5182 22.8963 22.5585 21.252 20.9142C19.5626 19.2249 17.5242 18.3802 15.1365 18.3802C12.7489 18.3802 10.7105 19.2249 9.02111 20.9142C7.33177 22.6036 6.48709 24.6421 6.48709 27.0297C6.48709 29.4173 7.33177 31.4558 9.02111 33.1451C10.7105 34.8345 12.7489 35.6791 15.1365 35.6791C16.7133 35.6791 18.1436 35.3075 19.4275 34.5642V41.5918Z" fill="#6D28D9"/>
<path d="M49.7344 18.3802C47.3468 18.3802 45.3083 19.2249 43.6189 20.9142C41.9296 22.6036 41.0849 24.6421 41.0849 27.0297V42.1662H34.5978V27.0297C34.5978 22.8401 36.0732 19.2699 39.0239 16.3192C41.9746 13.3685 45.5448 11.8931 49.7344 11.8931V18.3802Z" fill="#6D28D9"/>
<path d="M60.5462 18.3802V27.0297C60.5462 29.4173 61.3909 31.4558 63.0802 33.1451C64.7696 34.8345 66.808 35.6791 69.1956 35.6791V42.1662C65.0061 42.1662 61.4359 40.6909 58.4852 37.7401C55.5345 34.7894 54.0591 31.2193 54.0591 27.0297V3.24366H60.5462V11.8931H69.1956V11.8931C69.1956 15.4758 66.2913 18.3802 62.7086 18.3802H60.5462Z" fill="#6D28D9"/>
<path d="M80.0075 11.8931V35.6791C80.0075 39.2619 77.1031 42.1662 73.5204 42.1662V42.1662V11.8931H80.0075ZM80.9197 5.40603C80.9197 6.59983 80.4918 7.6247 79.6358 8.48064C78.8024 9.31405 77.7888 9.73076 76.595 9.73076C75.4012 9.73076 74.3763 9.31405 73.5204 8.48064C72.687 7.6247 72.2703 6.59983 72.2703 5.40603C72.2703 4.21222 72.687 3.19861 73.5204 2.3652C74.3763 1.50927 75.4012 1.0813 76.595 1.0813C77.7888 1.0813 78.8024 1.50927 79.6358 2.3652C80.4918 3.19861 80.9197 4.21222 80.9197 5.40603Z" fill="#6D28D9"/>
<path d="M84.3322 11.8931H92.0694L99.4687 27.0297L103.579 18.735C105.656 14.5444 109.928 11.8931 114.605 11.8931V11.8931L99.4687 42.1662L84.3322 11.8931Z" fill="#6D28D9"/>
<path d="M128.661 42.1662C124.471 42.1662 120.901 40.6909 117.95 37.7401C114.999 34.7894 113.524 31.2193 113.524 27.0297C113.524 22.8401 114.999 19.2699 117.95 16.3192C120.901 13.3685 124.471 11.8931 128.661 11.8931C132.85 11.8931 136.42 13.3685 139.371 16.3192C142.322 19.2699 143.797 22.8401 143.797 27.0297C143.797 31.2193 142.322 34.7894 139.371 37.7401C136.42 40.6909 132.85 42.1662 128.661 42.1662ZM128.661 35.6791C131.048 35.6791 133.087 34.8345 134.776 33.1451C136.465 31.4558 137.31 29.4173 137.31 27.0297C137.31 24.6421 136.465 22.6036 134.776 20.9142C133.087 19.2249 131.048 18.3802 128.661 18.3802C126.273 18.3802 124.235 19.2249 122.545 20.9142C120.856 22.6036 120.011 24.6421 120.011 27.0297C120.011 29.4173 120.856 31.4558 122.545 33.1451C124.235 34.8345 126.273 35.6791 128.661 35.6791Z" fill="#6D28D9"/>
<path d="M148.387 14.1254C147.917 14.2589 147.42 14.3257 146.896 14.3257C145.439 14.3257 144.199 13.8112 143.173 12.7824C142.148 11.7535 141.635 10.5086 141.635 9.04779C141.635 7.58695 142.148 6.34209 143.173 5.31322C144.199 4.28435 145.439 3.76991 146.896 3.76991C148.352 3.76991 149.592 4.28435 150.618 5.31322C151.643 6.34209 152.156 7.58695 152.156 9.04779V14.3257V14.3257C150.911 14.3257 149.902 13.3163 149.902 12.0711V8.96532C149.886 8.17207 149.592 7.48877 149.021 6.91543C148.434 6.32638 147.725 6.03186 146.896 6.03186C146.066 6.03186 145.357 6.32638 144.77 6.91543C144.183 7.50448 143.889 8.21526 143.889 9.04779C143.889 9.88031 144.183 10.5911 144.77 11.1801C145.357 11.7692 146.066 12.0637 146.896 12.0637C147.444 12.0637 147.941 11.9341 148.387 11.6749V14.1254Z" fill="#6D28D9"/>
<path d="M155.914 3.76991V12.0711C155.914 13.3163 154.904 14.3257 153.659 14.3257V14.3257V3.76991H155.914ZM156.231 1.50796C156.231 1.92423 156.082 2.28158 155.785 2.58003C155.495 2.87063 155.143 3.01593 154.728 3.01593C154.313 3.01593 153.957 2.87063 153.659 2.58003C153.37 2.28158 153.225 1.92423 153.225 1.50796C153.225 1.0917 153.37 0.738274 153.659 0.447677C153.957 0.149226 154.313 0 154.728 0C155.143 0 155.495 0.149226 155.785 0.447677C156.082 0.738274 156.231 1.0917 156.231 1.50796Z" fill="#6D28D9"/>
</svg>
